# xmcd CD database file
#
# Track frame offsets:
#	150
#	27751
#	56604
#	79009
#	117748
#	156576
#	188820
#	209779
#	245585
#
# Disc length: 3819 seconds
#
# Revision: 0
# Processed by: cddbd v1.5.1PL0 Copyright (c) Steve Scherf et al.
# Submitted via: CDex 1.51
#
DISCID=830ee909
DTITLE=Jess Roden - Live at the Robin
DYEAR=1996
DGENRE=Blues
TTITLE0=When I Call Your Name
TTITLE1=So Fine, So Young
TTITLE2=Cool Water
TTITLE3=I Live The Life I Love
TTITLE4=Let Me Love You Baby
TTITLE5=If You Really Want Me
TTITLE6=You'd Better Believe It
TTITLE7=Before I Hurt Myself
TTITLE8=Rockin' In The Free World
EXTD=YEAR: 1996
EXTT0=
EXTT1=
EXTT2=
EXTT3=
EXTT4=
EXTT5=
EXTT6=
EXTT7=
EXTT8=
PLAYORDER=
